# xmcd
#
# Track frame offsets: 
#        150
#        14280
#        27806
#        45921
#        60817
#        80046
#        96494
#        113920
#        134770
#        150223
#        163579
#        181756
#        201025
#        218633
#
# Disc length: 3099 seconds
#
# Revision: 0
# Processed by: cddbd v1.5.2PL0 Copyright (c) Steve Scherf et al.
# Submitted via: ExactAudioCopy v1.0b3
#
DISCID=a90c190e
DTITLE=Céline Dion - The French Albums - CD1
DYEAR=2008
DGENRE=Pop
TTITLE0=Ne partez pas sans moi
TTITLE1=Mon ami m'a quittée
TTITLE2=Hymne a l'amitie
TTITLE3=En amour
TTITLE4=Les chemins de ma maison
TTITLE5=Trois heures vingt
TTITLE6=Paul et Virginie
TTITLE7=Benjamin
TTITLE8=Visa pour les beaux jours
TTITLE9=Tellement j'ai d'amour pour toi
TTITLE10=C'est pour toi
TTITLE11=Mon reve de tojours
TTITLE12=A quattre pas d'ici
TTITLE13=Billy
EXTD=
EXTT0=
EXTT1=
EXTT2=
EXTT3=
EXTT4=
EXTT5=
EXTT6=
EXTT7=
EXTT8=
EXTT9=
EXTT10=
EXTT11=
EXTT12=
EXTT13=
PLAYORDER=
